<svg id="Layer_9" data-name="Layer 9" xmlns="http://www.w3.org/2000/svg" viewBox="0 0 48 48"><defs><style>.cls-1,.cls-2{fill:none;stroke:#000;stroke-miterlimit:10;}.cls-2{stroke-linecap:round;}</style></defs><title>outlinecontroller</title><path class="cls-1" d="M20,14.5a2,2,0,0,1-.89-.21L18.49,14a3,3,0,0,0-2.07-.23l-2,.51a2,2,0,0,0-1.3,1L12.5,16.5S5.7,30.94,10.12,34a2,2,0,0,0,2.3-.1,37.23,37.23,0,0,0,4.49-4.68,2,2,0,0,1,1.53-.71H29.56a2,2,0,0,1,1.53.71,37.23,37.23,0,0,0,4.49,4.68,2,2,0,0,0,2.3.1C42.3,30.94,35.5,16.5,35.5,16.5l-.59-1.18a2,2,0,0,0-1.3-1l-2-.51a3,3,0,0,0-2.07.23l-.59.29a2,2,0,0,1-.89.21Z"/><line class="cls-2" x1="19.5" y1="26.5" x2="19.5" y2="22.5"/><line class="cls-2" x1="17.5" y1="24.5" x2="21.5" y2="24.5"/><circle class="cls-1" cx="15.5" cy="19.5" r="2"/><circle class="cls-1" cx="28.5" cy="24.5" r="2"/><circle class="cls-1" cx="30" cy="19" r="0.5"/><circle class="cls-1" cx="32" cy="17" r="0.5"/><circle class="cls-1" cx="34" cy="19" r="0.5"/><circle class="cls-1" cx="32" cy="21" r="0.5"/><circle class="cls-1" cx="24" cy="17" r="0.5"/></svg>