<svg id="Layer_11" data-name="Layer 11" xmlns="http://www.w3.org/2000/svg" viewBox="0 0 48 48"><defs><style>.cls-1{fill:#04a1fe;}.cls-2{fill:#fff;}.cls-3,.cls-4,.cls-5,.cls-6{fill:none;stroke-miterlimit:10;}.cls-3{stroke:#000;}.cls-4,.cls-5{stroke:#313a63;}.cls-4{stroke-linecap:round;}.cls-6{stroke:#fff;}</style></defs><title>controller</title><path class="cls-1" d="M35.5,16.5S42.3,30.94,37.88,34a2,2,0,0,1-2.3-.1,37.23,37.23,0,0,1-4.49-4.68,2,2,0,0,0-1.53-.71H18.44a2,2,0,0,0-1.53.71,37.23,37.23,0,0,1-4.49,4.68,2,2,0,0,1-2.3.1C5.7,30.94,12.5,16.5,12.5,16.5l.59-1.18a2,2,0,0,1,1.3-1l2-.51a3,3,0,0,1,2.07.23l.59.29a2,2,0,0,0,.89.21H28a2,2,0,0,0,.89-.21l.59-.29a3,3,0,0,1,2.07-.23l2,.51a2,2,0,0,1,1.3,1Zm-1,2.5a.5.5,0,1,0-.5.5A.5.5,0,0,0,34.5,19Zm-2-2a.5.5,0,1,0-.5.5A.5.5,0,0,0,32.5,17Zm0,4a.5.5,0,1,0-.5.5A.5.5,0,0,0,32.5,21Zm-2-2a.5.5,0,1,0-.5.5A.5.5,0,0,0,30.5,19Zm0,5.5a2,2,0,1,0-2,2A2,2,0,0,0,30.5,24.5Zm-6-7.5a.5.5,0,1,0-.5.5A.5.5,0,0,0,24.5,17Zm-7,2.5a2,2,0,1,0-2,2A2,2,0,0,0,17.5,19.5Z"/><circle class="cls-1" cx="34" cy="19" r="0.5"/><circle class="cls-1" cx="32" cy="17" r="0.5"/><circle class="cls-1" cx="32" cy="21" r="0.5"/><circle class="cls-1" cx="30" cy="19" r="0.5"/><circle class="cls-1" cx="28.5" cy="24.5" r="2"/><circle class="cls-2" cx="24" cy="17" r="0.5"/><circle class="cls-1" cx="15.5" cy="19.5" r="2"/><path class="cls-3" d="M20,14.5a2,2,0,0,1-.89-.21L18.49,14a3,3,0,0,0-2.07-.23l-2,.51a2,2,0,0,0-1.3,1L12.5,16.5S5.7,30.94,10.12,34a2,2,0,0,0,2.3-.1,37.23,37.23,0,0,0,4.49-4.68,2,2,0,0,1,1.53-.71H29.56a2,2,0,0,1,1.53.71,37.23,37.23,0,0,0,4.49,4.68,2,2,0,0,0,2.3.1C42.3,30.94,35.5,16.5,35.5,16.5l-.59-1.18a2,2,0,0,0-1.3-1l-2-.51a3,3,0,0,0-2.07.23l-.59.29a2,2,0,0,1-.89.21Z"/><polyline class="cls-4" points="19.5 26.5 19.5 24.5 19.5 22.5"/><polyline class="cls-4" points="17.5 24.5 19.5 24.5 21.5 24.5"/><circle class="cls-5" cx="15.5" cy="19.5" r="2"/><circle class="cls-5" cx="28.5" cy="24.5" r="2"/><circle class="cls-5" cx="30" cy="19" r="0.5"/><circle class="cls-5" cx="32" cy="17" r="0.5"/><circle class="cls-5" cx="34" cy="19" r="0.5"/><circle class="cls-5" cx="32" cy="21" r="0.5"/><circle class="cls-6" cx="24" cy="17" r="0.5"/></svg>