<svg xmlns="http://www.w3.org/2000/svg" viewBox="0 0 48 48"><defs><style>.cls-1{fill:#333;}.cls-1,.cls-3{stroke:#000;}.cls-1,.cls-2,.cls-3,.cls-4{stroke-linecap:round;stroke-linejoin:round;}.cls-2{fill:#e6e6e6;stroke:#e6e6e6;}.cls-3,.cls-4{fill:none;}.cls-4{stroke:#4d4d4d;}</style></defs><title>kindle</title><g id="kindle"><rect class="cls-1" x="12.5" y="8.5" width="23" height="31" rx="2" ry="2"/><rect class="cls-2" x="15.5" y="11.5" width="17" height="24" rx="1" ry="1"/><line class="cls-3" x1="21.5" y1="37.5" x2="26.5" y2="37.5"/><line class="cls-4" x1="19.5" y1="16.5" x2="28.5" y2="16.5"/><line class="cls-4" x1="22.5" y1="14.5" x2="25.5" y2="14.5"/><line class="cls-4" x1="20.5" y1="19.5" x2="30.5" y2="19.5"/><line class="cls-4" x1="21.5" y1="21.5" x2="30.5" y2="21.5"/><line class="cls-4" x1="17.5" y1="23.5" x2="30.5" y2="23.5"/><line class="cls-4" x1="17.5" y1="25.5" x2="21.5" y2="25.5"/><line class="cls-4" x1="19.5" y1="27.5" x2="30.5" y2="27.5"/><line class="cls-4" x1="17.5" y1="29.5" x2="30.5" y2="29.5"/><line class="cls-4" x1="17.5" y1="31.5" x2="30.5" y2="31.5"/><line class="cls-4" x1="17.5" y1="33.5" x2="30.5" y2="33.5"/><polyline class="cls-4" points="17.5 21.5 18.5 19.5 19.5 21.5"/></g></svg>