<svg id="Layer_2" data-name="Layer 2" xmlns="http://www.w3.org/2000/svg" viewBox="0 0 96 96"><defs><style>.cls-1,.cls-2{fill:none;stroke:#000;stroke-miterlimit:10;}.cls-2{stroke-linecap:round;}</style></defs><title>outlineArtboard 1</title><path class="cls-1" d="M75.47,39.75a2,2,0,0,0,.39-.8l5.83-25a1.91,1.91,0,0,0-1.94-2.45H16A2,2,0,0,0,14.1,14l6,25a2,2,0,0,0,.39.79"/><path class="cls-1" d="M22.32,36.72l-4.54-20a1,1,0,0,1,1-1.22h58.5a1,1,0,0,1,1,1.22l-4.54,20a1,1,0,0,1-1,.78H23.3A1,1,0,0,1,22.32,36.72Z"/><rect class="cls-1" x="19.5" y="39.5" width="57" height="40" rx="2" ry="2"/><line class="cls-1" x1="14.04" y1="13.5" x2="81.76" y2="13.5"/><path class="cls-1" d="M71.5,39v.5a2,2,0,0,1-2,2h-43a2,2,0,0,1-2-2V39"/><rect class="cls-1" x="24.5" y="43.5" width="47" height="17" rx="2" ry="2"/><rect class="cls-1" x="35.5" y="62.5" width="25" height="15" rx="2" ry="2"/><line class="cls-2" x1="33.5" y1="57.5" x2="36.5" y2="57.5"/><line class="cls-2" x1="39.5" y1="57.5" x2="56.5" y2="57.5"/><line class="cls-2" x1="27.5" y1="57.5" x2="30.5" y2="57.5"/><line class="cls-2" x1="27.5" y1="54.5" x2="31.5" y2="54.5"/><line class="cls-2" x1="46.5" y1="54.5" x2="49.5" y2="54.5"/><line class="cls-2" x1="40.5" y1="54.5" x2="43.5" y2="54.5"/><line class="cls-2" x1="59.5" y1="57.5" x2="62.5" y2="57.5"/><line class="cls-2" x1="65.5" y1="57.5" x2="68.5" y2="57.5"/><line class="cls-2" x1="34.5" y1="54.5" x2="37.5" y2="54.5"/><line class="cls-2" x1="64.5" y1="54.5" x2="68.5" y2="54.5"/><line class="cls-2" x1="58.5" y1="54.5" x2="61.5" y2="54.5"/><line class="cls-2" x1="52.5" y1="54.5" x2="55.5" y2="54.5"/><line class="cls-2" x1="27.5" y1="51.5" x2="28.5" y2="51.5"/><line class="cls-2" x1="49.5" y1="51.5" x2="52.5" y2="51.5"/><line class="cls-2" x1="43.5" y1="51.5" x2="46.5" y2="51.5"/><line class="cls-2" x1="37.5" y1="51.5" x2="40.5" y2="51.5"/><line class="cls-2" x1="67.5" y1="51.5" x2="68.5" y2="51.5"/><line class="cls-2" x1="61.5" y1="51.5" x2="64.5" y2="51.5"/><line class="cls-2" x1="55.5" y1="51.5" x2="58.5" y2="51.5"/><line class="cls-2" x1="31.5" y1="51.5" x2="34.5" y2="51.5"/><line class="cls-2" x1="27.5" y1="48.5" x2="31.5" y2="48.5"/><line class="cls-2" x1="46.5" y1="48.5" x2="49.5" y2="48.5"/><line class="cls-2" x1="40.5" y1="48.5" x2="43.5" y2="48.5"/><line class="cls-2" x1="34.5" y1="48.5" x2="37.5" y2="48.5"/><line class="cls-2" x1="64.5" y1="48.5" x2="68.5" y2="48.5"/><line class="cls-2" x1="58.5" y1="48.5" x2="61.5" y2="48.5"/><line class="cls-2" x1="52.5" y1="48.5" x2="55.5" y2="48.5"/><line class="cls-2" x1="27.5" y1="45.5" x2="28.5" y2="45.5"/><line class="cls-2" x1="49.5" y1="45.5" x2="52.5" y2="45.5"/><line class="cls-2" x1="43.5" y1="45.5" x2="46.5" y2="45.5"/><line class="cls-2" x1="37.5" y1="45.5" x2="40.5" y2="45.5"/><line class="cls-2" x1="67.5" y1="45.5" x2="68.5" y2="45.5"/><line class="cls-2" x1="61.5" y1="45.5" x2="64.5" y2="45.5"/><line class="cls-2" x1="55.5" y1="45.5" x2="58.5" y2="45.5"/><line class="cls-2" x1="31.5" y1="45.5" x2="34.5" y2="45.5"/><line class="cls-2" x1="21.5" y1="18.5" x2="38.5" y2="18.5"/><line class="cls-2" x1="24.5" y1="21.5" x2="31.5" y2="21.5"/><line class="cls-2" x1="23.5" y1="24.5" x2="31.5" y2="24.5"/><line class="cls-2" x1="23.5" y1="27.5" x2="26.5" y2="27.5"/><line class="cls-2" x1="26.5" y1="30.5" x2="31.5" y2="30.5"/><line class="cls-2" x1="33.5" y1="21.5" x2="34.5" y2="21.5"/><line class="cls-2" x1="33.5" y1="24.5" x2="36.5" y2="24.5"/><line class="cls-2" x1="38.5" y1="24.5" x2="41.5" y2="24.5"/><line class="cls-2" x1="28.5" y1="27.5" x2="36.5" y2="27.5"/><line class="cls-2" x1="36.5" y1="30.5" x2="41.5" y2="30.5"/><line class="cls-2" x1="33.5" y1="30.5" x2="34.5" y2="30.5"/><line class="cls-2" x1="29.5" y1="33.5" x2="36.5" y2="33.5"/><line class="cls-2" x1="38.5" y1="33.5" x2="39.5" y2="33.5"/><line class="cls-2" x1="41.5" y1="33.5" x2="42.5" y2="33.5"/><line class="cls-2" x1="59.5" y1="35.5" x2="61.5" y2="17.5"/><line class="cls-2" x1="64.5" y1="18.5" x2="74.5" y2="18.5"/><line class="cls-2" x1="69.5" y1="21.5" x2="70.5" y2="21.5"/><line class="cls-2" x1="64.5" y1="21.5" x2="67.5" y2="21.5"/></svg>