<svg id="Layer_3" data-name="Layer 3" xmlns="http://www.w3.org/2000/svg" viewBox="0 0 96 96"><defs><style>.cls-1{fill:#6c7b7f;}.cls-2{fill:#1e2126;}.cls-3{fill:#282c34;}.cls-10,.cls-11,.cls-12,.cls-13,.cls-4,.cls-5,.cls-6,.cls-7,.cls-8,.cls-9{fill:none;stroke-miterlimit:10;}.cls-4{stroke:#000;}.cls-5{stroke:#282c34;}.cls-6{stroke:#7f848e;}.cls-10,.cls-11,.cls-12,.cls-13,.cls-6,.cls-7,.cls-8,.cls-9{stroke-linecap:round;}.cls-7{stroke:#e06c75;}.cls-8{stroke:#61afef;}.cls-9{stroke:#c678dd;}.cls-10{stroke:#e5c07b;}.cls-11{stroke:#98c379;}.cls-12{stroke:#5c6370;}.cls-13{stroke:#ddd;}</style></defs><title>Artboard 1</title><path class="cls-1" d="M79.75,11.5a1.88,1.88,0,0,1,2,2H14a2,2,0,0,1,2-2Z"/><path class="cls-2" d="M71.5,39.5h-50a1.91,1.91,0,0,0-1,.26,2,2,0,0,1-.39-.79l-6-25A1.89,1.89,0,0,1,14,13.5H81.75a2.32,2.32,0,0,1-.06.45L75.86,39a2,2,0,0,1-.39.8,2,2,0,0,0-1-.25Zm6.72-22.78a1,1,0,0,0-1-1.22H18.75a1,1,0,0,0-1,1.22l4.54,20a1,1,0,0,0,1,.78H72.7a1,1,0,0,0,1-.78Z"/><path class="cls-3" d="M77.25,15.5a1,1,0,0,1,1,1.22l-4.54,20a1,1,0,0,1-1,.78H23.3a1,1,0,0,1-1-.78l-4.54-20a1,1,0,0,1,1-1.22Z"/><path class="cls-1" d="M76.5,41.5v36a2,2,0,0,1-2,2h-53a2,2,0,0,1-2-2v-36a2,2,0,0,1,1-1.74,1.91,1.91,0,0,1,1-.26h3a2,2,0,0,0,2,2h43a2,2,0,0,0,2-2h3a2,2,0,0,1,1,.25A2,2,0,0,1,76.5,41.5Zm-5,17v-13a2,2,0,0,0-2-2h-43a2,2,0,0,0-2,2v13a2,2,0,0,0,2,2h43A2,2,0,0,0,71.5,58.5Zm-11,17v-11a2,2,0,0,0-2-2h-21a2,2,0,0,0-2,2v11a2,2,0,0,0,2,2h21A2,2,0,0,0,60.5,75.5Z"/><rect class="cls-3" x="24.5" y="43.5" width="47" height="17" rx="2" ry="2"/><path class="cls-3" d="M24.5,39.5h47a2,2,0,0,1-2,2h-43A2,2,0,0,1,24.5,39.5Z"/><rect class="cls-1" x="35.5" y="62.5" width="25" height="15" rx="2" ry="2"/><path class="cls-4" d="M75.47,39.75a2,2,0,0,0,.39-.8l5.83-25a2.32,2.32,0,0,0,.06-.45,1.88,1.88,0,0,0-2-2H16a2,2,0,0,0-2,2,1.89,1.89,0,0,0,.06.47l6,25a2,2,0,0,0,.39.79"/><path class="cls-5" d="M22.32,36.72l-4.54-20a1,1,0,0,1,1-1.22h58.5a1,1,0,0,1,1,1.22l-4.54,20a1,1,0,0,1-1,.78H23.3A1,1,0,0,1,22.32,36.72Z"/><path class="cls-4" d="M20.52,39.76a2,2,0,0,0-1,1.74v36a2,2,0,0,0,2,2h53a2,2,0,0,0,2-2v-36a2,2,0,0,0-1-1.75,2,2,0,0,0-1-.25h-53A1.91,1.91,0,0,0,20.52,39.76Z"/><polyline class="cls-4" points="14.04 13.5 81.75 13.5 81.76 13.5"/><path class="cls-4" d="M71.5,39v.5a2,2,0,0,1-2,2h-43a2,2,0,0,1-2-2V39"/><rect class="cls-4" x="24.5" y="43.5" width="47" height="17" rx="2" ry="2"/><rect class="cls-4" x="35.5" y="62.5" width="25" height="15" rx="2" ry="2"/><line class="cls-6" x1="33.5" y1="57.5" x2="36.5" y2="57.5"/><line class="cls-6" x1="39.5" y1="57.5" x2="56.5" y2="57.5"/><line class="cls-6" x1="27.5" y1="57.5" x2="30.5" y2="57.5"/><line class="cls-6" x1="27.5" y1="54.5" x2="31.5" y2="54.5"/><line class="cls-6" x1="46.5" y1="54.5" x2="49.5" y2="54.5"/><line class="cls-6" x1="40.5" y1="54.5" x2="43.5" y2="54.5"/><line class="cls-6" x1="59.5" y1="57.5" x2="62.5" y2="57.5"/><line class="cls-6" x1="65.5" y1="57.5" x2="68.5" y2="57.5"/><line class="cls-6" x1="34.5" y1="54.5" x2="37.5" y2="54.5"/><line class="cls-6" x1="64.5" y1="54.5" x2="68.5" y2="54.5"/><line class="cls-6" x1="58.5" y1="54.5" x2="61.5" y2="54.5"/><line class="cls-6" x1="52.5" y1="54.5" x2="55.5" y2="54.5"/><line class="cls-6" x1="27.5" y1="51.5" x2="28.5" y2="51.5"/><line class="cls-6" x1="49.5" y1="51.5" x2="52.5" y2="51.5"/><line class="cls-6" x1="43.5" y1="51.5" x2="46.5" y2="51.5"/><line class="cls-6" x1="37.5" y1="51.5" x2="40.5" y2="51.5"/><line class="cls-6" x1="67.5" y1="51.5" x2="68.5" y2="51.5"/><line class="cls-6" x1="61.5" y1="51.5" x2="64.5" y2="51.5"/><line class="cls-6" x1="55.5" y1="51.5" x2="58.5" y2="51.5"/><line class="cls-6" x1="31.5" y1="51.5" x2="34.5" y2="51.5"/><line class="cls-6" x1="27.5" y1="48.5" x2="31.5" y2="48.5"/><line class="cls-6" x1="46.5" y1="48.5" x2="49.5" y2="48.5"/><line class="cls-6" x1="40.5" y1="48.5" x2="43.5" y2="48.5"/><line class="cls-6" x1="34.5" y1="48.5" x2="37.5" y2="48.5"/><line class="cls-6" x1="64.5" y1="48.5" x2="68.5" y2="48.5"/><line class="cls-6" x1="58.5" y1="48.5" x2="61.5" y2="48.5"/><line class="cls-6" x1="52.5" y1="48.5" x2="55.5" y2="48.5"/><line class="cls-6" x1="27.5" y1="45.5" x2="28.5" y2="45.5"/><line class="cls-6" x1="49.5" y1="45.5" x2="52.5" y2="45.5"/><line class="cls-6" x1="43.5" y1="45.5" x2="46.5" y2="45.5"/><line class="cls-6" x1="37.5" y1="45.5" x2="40.5" y2="45.5"/><line class="cls-6" x1="67.5" y1="45.5" x2="68.5" y2="45.5"/><line class="cls-6" x1="61.5" y1="45.5" x2="64.5" y2="45.5"/><line class="cls-6" x1="55.5" y1="45.5" x2="58.5" y2="45.5"/><line class="cls-6" x1="31.5" y1="45.5" x2="34.5" y2="45.5"/><line class="cls-7" x1="21.5" y1="18.5" x2="38.5" y2="18.5"/><line class="cls-8" x1="24.5" y1="21.5" x2="31.5" y2="21.5"/><line class="cls-9" x1="23.5" y1="24.5" x2="31.5" y2="24.5"/><line class="cls-9" x1="23.5" y1="27.5" x2="26.5" y2="27.5"/><line class="cls-8" x1="26.5" y1="30.5" x2="31.5" y2="30.5"/><line class="cls-10" x1="33.5" y1="21.5" x2="34.5" y2="21.5"/><line class="cls-7" x1="33.5" y1="24.5" x2="36.5" y2="24.5"/><line class="cls-11" x1="38.5" y1="24.5" x2="41.5" y2="24.5"/><line class="cls-8" x1="28.5" y1="27.5" x2="36.5" y2="27.5"/><line class="cls-11" x1="36.5" y1="30.5" x2="41.5" y2="30.5"/><line class="cls-10" x1="33.5" y1="30.5" x2="34.5" y2="30.5"/><line class="cls-7" x1="29.5" y1="33.5" x2="36.5" y2="33.5"/><line class="cls-10" x1="38.5" y1="33.5" x2="39.5" y2="33.5"/><line class="cls-8" x1="41.5" y1="33.5" x2="42.5" y2="33.5"/><line class="cls-12" x1="59.5" y1="35.5" x2="61.5" y2="17.5"/><line class="cls-13" x1="64.5" y1="18.5" x2="74.5" y2="18.5"/><line class="cls-6" x1="69.5" y1="21.5" x2="70.5" y2="21.5"/><line class="cls-6" x1="64.5" y1="21.5" x2="67.5" y2="21.5"/></svg>