<svg xmlns="http://www.w3.org/2000/svg" viewBox="0 0 56 56"><defs><style>.cls-1{fill:#fff6eb;}.cls-2{fill:#99533d;}.cls-3{fill:#eccfba;}.cls-4{fill:#179237;}.cls-10,.cls-11,.cls-5,.cls-6,.cls-7,.cls-8,.cls-9{fill:none;}.cls-5{stroke:#50632e;}.cls-5,.cls-8,.cls-9{stroke-linejoin:round;}.cls-6{stroke:#ddc18a;}.cls-6,.cls-8,.cls-9{stroke-linecap:round;}.cls-10,.cls-11,.cls-6,.cls-7{stroke-miterlimit:10;}.cls-7{stroke:#c59689;}.cls-8{stroke:#f9e448;}.cls-9{stroke:#e88400;}.cls-10{stroke:#663833;}.cls-11{stroke:#000;}</style></defs><title>ramen</title><g id="Layer_9" data-name="Layer 9"><path class="cls-1" d="M28,6.5A21.5,21.5,0,1,1,6.5,28,21.51,21.51,0,0,1,28,6.5ZM46.5,28A18.5,18.5,0,1,0,28,46.5,18.5,18.5,0,0,0,46.5,28Z"/><path class="cls-2" d="M28,9.5A18.5,18.5,0,1,1,9.5,28,18.5,18.5,0,0,1,28,9.5Zm2.5,8v-4a1,1,0,0,0-1-1h-1a1,1,0,0,0-1,1v4a1,1,0,0,0,1,1h1A1,1,0,0,0,30.5,17.5Zm-5,0v-4a1,1,0,0,0-1-1h-1a1,1,0,0,0-1,1v4a1,1,0,0,0,1,1h1A1,1,0,0,0,25.5,17.5Zm-4,8s.42-3.82,0-5-2.88-3.56-4-3c-.73.36-.8,1.92-.57,3.26a1.59,1.59,0,0,0-1.43-.26c-.73.36-.8,1.92-.57,3.26a1.59,1.59,0,0,0-1.43-.26c-1.12.56-.69,4,0,5s4,3,4,3a27.59,27.59,0,0,0,.15-4.19c1,.66,1.85,1.19,1.85,1.19a27.59,27.59,0,0,0,.15-4.19C20.6,25,21.5,25.5,21.5,25.5Z"/><rect class="cls-3" x="27.5" y="12.5" width="3" height="6" rx="1" ry="1"/><rect class="cls-3" x="22.5" y="12.5" width="3" height="6" rx="1" ry="1"/><path class="cls-4" d="M21.5,20.5c.42,1.18,0,5,0,5s-.9-.53-1.85-1.19a3.56,3.56,0,0,0-.15-.81,6.8,6.8,0,0,0-2.57-2.74c-.23-1.34-.16-2.9.57-3.26C18.62,16.94,21.08,19.32,21.5,20.5Z"/><path class="cls-4" d="M19.65,24.31a27.59,27.59,0,0,1-.15,4.19s-.9-.53-1.85-1.19a3.56,3.56,0,0,0-.15-.81,6.8,6.8,0,0,0-2.57-2.74c-.23-1.34-.16-2.9.57-3.26a1.59,1.59,0,0,1,1.43.26A6.8,6.8,0,0,1,19.5,23.5,3.56,3.56,0,0,1,19.65,24.31Z"/><path class="cls-4" d="M17.65,27.31a27.59,27.59,0,0,1-.15,4.19s-3.31-2-4-3-1.12-4.44,0-5a1.59,1.59,0,0,1,1.43.26A6.8,6.8,0,0,1,17.5,26.5,3.56,3.56,0,0,1,17.65,27.31Z"/><path class="cls-5" d="M17.65,27.31a27.59,27.59,0,0,1-.15,4.19s-3.31-2-4-3-1.12-4.44,0-5a1.59,1.59,0,0,1,1.43.26A6.8,6.8,0,0,1,17.5,26.5,3.56,3.56,0,0,1,17.65,27.31Z"/><path class="cls-6" d="M15.5,35.5h3a1,1,0,0,0,1-1v-2a1,1,0,0,1,1-1h2a1,1,0,0,0,1-1v-2a1,1,0,0,1,1-1h2a1,1,0,0,0,1-1v-2a1,1,0,0,1,1-1h2a1,1,0,0,0,1-1v-2a1,1,0,0,1,1-1h2a1,1,0,0,0,1-1v-3"/><path class="cls-6" d="M17.5,37.5h3a1,1,0,0,0,1-1v-2a1,1,0,0,1,1-1h2a1,1,0,0,0,1-1v-2a1,1,0,0,1,1-1h2a1,1,0,0,0,1-1v-2a1,1,0,0,1,1-1h2a1,1,0,0,0,1-1v-2a1,1,0,0,1,1-1h2a1,1,0,0,0,1-1v-3"/><path class="cls-6" d="M19.5,39.5h3a1,1,0,0,0,1-1v-2a1,1,0,0,1,1-1h2a1,1,0,0,0,1-1v-2a1,1,0,0,1,1-1h2a1,1,0,0,0,1-1v-2a1,1,0,0,1,1-1h2a1,1,0,0,0,1-1v-2a1,1,0,0,1,1-1h2a1,1,0,0,0,1-1v-3"/><path class="cls-6" d="M21.5,41.5h3a1,1,0,0,0,1-1v-2a1,1,0,0,1,1-1h2a1,1,0,0,0,1-1v-2a1,1,0,0,1,1-1h2a1,1,0,0,0,1-1v-2a1,1,0,0,1,1-1h2a1,1,0,0,0,1-1v-2a1,1,0,0,1,1-1h2a1,1,0,0,0,1-1v-3"/><rect class="cls-7" x="22.5" y="12.5" width="3" height="6" rx="1" ry="1"/><rect class="cls-7" x="27.5" y="12.5" width="3" height="6" rx="1" ry="1"/><line class="cls-8" x1="29.5" y1="43.5" x2="30.5" y2="43.5"/><line class="cls-8" x1="29.5" y1="41.5" x2="30.5" y2="41.5"/><line class="cls-8" x1="32.5" y1="43.5" x2="32.5" y2="42.5"/><line class="cls-8" x1="32.5" y1="40.5" x2="32.5" y2="39.5"/><line class="cls-8" x1="34.5" y1="40.5" x2="34.5" y2="39.5"/><line class="cls-8" x1="36.5" y1="38.5" x2="37.5" y2="38.5"/><line class="cls-8" x1="36.5" y1="36.5" x2="37.5" y2="36.5"/><line class="cls-8" x1="32.5" y1="37.5" x2="32.5" y2="36.5"/><line class="cls-8" x1="34.5" y1="37.5" x2="34.5" y2="36.5"/><line class="cls-9" x1="36.5" y1="33.5" x2="38.5" y2="31.5"/><line class="cls-9" x1="39.5" y1="33.5" x2="41.5" y2="31.5"/><line class="cls-9" x1="39.5" y1="36.5" x2="41.5" y2="34.5"/><line class="cls-9" x1="40.5" y1="29.5" x2="42.5" y2="27.5"/><line class="cls-9" x1="43.5" y1="29.5" x2="43.5" y2="32.5"/><path class="cls-5" d="M14.93,23.76c-.23-1.34-.16-2.9.57-3.26a1.59,1.59,0,0,1,1.43.26A6.8,6.8,0,0,1,19.5,23.5a3.56,3.56,0,0,1,.15.81,27.59,27.59,0,0,1-.15,4.19s-.9-.53-1.85-1.19"/><path class="cls-5" d="M16.93,20.76c-.23-1.34-.16-2.9.57-3.26,1.12-.56,3.58,1.82,4,3s0,5,0,5-.9-.53-1.85-1.19"/><circle class="cls-10" cx="28" cy="28" r="18.5"/><circle class="cls-11" cx="28" cy="28" r="21.5"/></g></svg>