<svg xmlns="http://www.w3.org/2000/svg" viewBox="0 0 56 56"><defs><style>.cls-1,.cls-2,.cls-3,.cls-4{fill:none;stroke:#000;}.cls-1,.cls-4{stroke-linejoin:round;}.cls-2,.cls-4{stroke-linecap:round;}.cls-2,.cls-3{stroke-miterlimit:10;}</style></defs><title>ramen</title><g id="Layer_8" data-name="Layer 8"><path class="cls-1" d="M17.5,31.5s-3.31-2-4-3-1.12-4.44,0-5,3.58,1.82,4,3S17.5,31.5,17.5,31.5Z"/><path class="cls-2" d="M15.5,35.5h3a1,1,0,0,0,1-1v-2a1,1,0,0,1,1-1h2a1,1,0,0,0,1-1v-2a1,1,0,0,1,1-1h2a1,1,0,0,0,1-1v-2a1,1,0,0,1,1-1h2a1,1,0,0,0,1-1v-2a1,1,0,0,1,1-1h2a1,1,0,0,0,1-1v-3"/><path class="cls-2" d="M17.5,37.5h3a1,1,0,0,0,1-1v-2a1,1,0,0,1,1-1h2a1,1,0,0,0,1-1v-2a1,1,0,0,1,1-1h2a1,1,0,0,0,1-1v-2a1,1,0,0,1,1-1h2a1,1,0,0,0,1-1v-2a1,1,0,0,1,1-1h2a1,1,0,0,0,1-1v-3"/><path class="cls-2" d="M19.5,39.5h3a1,1,0,0,0,1-1v-2a1,1,0,0,1,1-1h2a1,1,0,0,0,1-1v-2a1,1,0,0,1,1-1h2a1,1,0,0,0,1-1v-2a1,1,0,0,1,1-1h2a1,1,0,0,0,1-1v-2a1,1,0,0,1,1-1h2a1,1,0,0,0,1-1v-3"/><path class="cls-2" d="M21.5,41.5h3a1,1,0,0,0,1-1v-2a1,1,0,0,1,1-1h2a1,1,0,0,0,1-1v-2a1,1,0,0,1,1-1h2a1,1,0,0,0,1-1v-2a1,1,0,0,1,1-1h2a1,1,0,0,0,1-1v-2a1,1,0,0,1,1-1h2a1,1,0,0,0,1-1v-3"/><rect class="cls-3" x="22.5" y="12.5" width="3" height="6" rx="1" ry="1"/><rect class="cls-3" x="27.5" y="12.5" width="3" height="6" rx="1" ry="1"/><line class="cls-4" x1="29.5" y1="43.5" x2="30.5" y2="43.5"/><line class="cls-4" x1="29.5" y1="41.5" x2="30.5" y2="41.5"/><line class="cls-4" x1="32.5" y1="43.5" x2="32.5" y2="42.5"/><line class="cls-4" x1="32.5" y1="40.5" x2="32.5" y2="39.5"/><line class="cls-4" x1="34.5" y1="40.5" x2="34.5" y2="39.5"/><line class="cls-4" x1="36.5" y1="38.5" x2="37.5" y2="38.5"/><line class="cls-4" x1="36.5" y1="36.5" x2="37.5" y2="36.5"/><line class="cls-4" x1="32.5" y1="37.5" x2="32.5" y2="36.5"/><line class="cls-4" x1="34.5" y1="37.5" x2="34.5" y2="36.5"/><line class="cls-4" x1="36.5" y1="33.5" x2="38.5" y2="31.5"/><line class="cls-4" x1="39.5" y1="33.5" x2="41.5" y2="31.5"/><line class="cls-4" x1="39.5" y1="36.5" x2="41.5" y2="34.5"/><line class="cls-4" x1="40.5" y1="29.5" x2="42.5" y2="27.5"/><line class="cls-4" x1="43.5" y1="29.5" x2="43.5" y2="32.5"/><path class="cls-1" d="M14.93,23.76c-.23-1.34-.16-2.9.57-3.26,1.12-.56,3.58,1.82,4,3s0,5,0,5-.9-.53-1.85-1.19"/><path class="cls-1" d="M16.93,20.76c-.23-1.34-.16-2.9.57-3.26,1.12-.56,3.58,1.82,4,3s0,5,0,5-.9-.53-1.85-1.19"/><circle class="cls-3" cx="28" cy="28" r="18.5"/><circle class="cls-3" cx="28" cy="28" r="21.5"/></g></svg>