<svg id="Layer_8" data-name="Layer 8" xmlns="http://www.w3.org/2000/svg" viewBox="0 0 48 48"><defs><style>.cls-1{fill:#d6d1d1;}.cls-2{fill:#c58e4c;}.cls-3,.cls-4{fill:none;stroke:#000;stroke-miterlimit:10;}.cls-3{stroke-linecap:round;}</style></defs><title>Artboard 2</title><g id="_Group_" data-name="&lt;Group&gt;"><path class="cls-1" d="M38,20.5a1.5,1.5,0,0,1,0,3H33.88a9.44,9.44,0,0,0,0-3Z"/><path class="cls-1" d="M29,27a6.9,6.9,0,1,0-1.78,1.3A7.15,7.15,0,0,0,29,27Zm2.12,2.12a10.27,10.27,0,0,1-1.62,1.32,10,10,0,1,1,4.43-9.89,9.44,9.44,0,0,1,0,3A9.92,9.92,0,0,1,31.07,29.07Z"/><path class="cls-2" d="M29,27a7.15,7.15,0,0,1-1.78,1.3A7,7,0,1,1,29,27Z"/><path class="cls-3" d="M29.45,30.39a10,10,0,1,1,4.43-9.89,9.44,9.44,0,0,1,0,3,9.92,9.92,0,0,1-2.81,5.57"/><path class="cls-3" d="M27.17,28.25A7,7,0,1,1,29,27"/><path class="cls-4" d="M33.72,23.5H38a1.5,1.5,0,0,0,0-3H33.72"/><polyline class="cls-3" points="32.5 30.5 31.07 29.07 28.95 26.95 26.5 24.5"/><polyline class="cls-3" points="30.5 32.5 32.5 30.5 34.5 28.5"/></g></svg>